<svg opacity="0.2" width="1200" height="800" viewBox="0 0 1200 800" fill="none" xmlns="http://www.w3.org/2000/svg">
<g clip-path="url(#clip0_3_601)">
<rect width="1200" height="800" fill="white"/>
<mask id="mask0_3_601" style="mask-type:luminance" maskUnits="userSpaceOnUse" x="0" y="0" width="1200" height="800">
<path d="M1200 0H0V800H1200V0Z" fill="white"/>
</mask>
<g mask="url(#mask0_3_601)">
<path d="M1200 0H0V800H1200V0Z" fill="#011526"/>
</g>
<mask id="mask1_3_601" style="mask-type:luminance" maskUnits="userSpaceOnUse" x="0" y="0" width="1200" height="800">
<path d="M1200 0H0V800H1200V0Z" fill="white"/>
</mask>
<g mask="url(#mask1_3_601)">
<path d="M-47.1 -123.1C4.69999 -171.8 79.4 -194 149.6 -181.8C219.8 -169.6 283.7 -122.9 318.1 -59.0999C361.8 22.1001 359.9 127.5 422.7 194.6C476 251.4 559.1 262.7 635 273.9C710.9 285.1 794.9 305.1 838 370.2C867.1 414.2 873.3 473.6 912.5 508.5C952.4 543.9 1013.7 540.7 1061.3 518.7C1108.9 496.7 1147.5 459.5 1190.5 429.3C1320.7 338 1495.4 315.2 1646 369.8" stroke="#031A2E" stroke-miterlimit="10"/>
<path d="M-54.1 -116.9C-24.7 -143.7 11.9 -161.6 50.2 -169.2C81.8 -175.5 114.5 -174.9 145.4 -167.3C152.5 -165.5 159.4 -163.4 166.2 -161C201.3 -148.3 232.9 -126.5 260.8 -99.2C279.9 -80.5 297.3 -59.7 311.1 -37.4C318.8 -25 325.5 -12.3 331.5 0.600021C347.9 35.8 359.1 72.3 373.8 106.5C387.4 138.6 404.2 168.8 431.3 194.1C434 196.6 436.7 199 439.6 201.4C471.2 227.8 510.8 244.2 550.1 257.1C580.5 267.1 610.6 274.3 639.4 281.3C642.3 282 645.2 282.7 648.1 283.4C686.3 293 726.2 305.5 760.2 326.5C785.8 342.2 808.3 363.1 826.7 390.2C855.8 433.2 864.3 488.7 903.5 521C943.1 553.9 1002.9 550.6 1049.8 530C1081 516.3 1108.5 496.4 1135.9 476.6C1149.7 466.6 1163.5 456.6 1177.7 447.4C1235 410.3 1300.3 386.8 1367.1 377.6C1450.3 366.2 1535.4 377 1611 408.1" stroke="#031A2E" stroke-miterlimit="10"/>
<path d="M-61 -110.7C-30.7 -137.6 7.4 -154.6 46.4 -160.4C78.6 -165.2 111.3 -162.5 141.3 -152.7C148.2 -150.5 154.9 -147.9 161.4 -144.9C195.1 -129.7 223.9 -105.6 251.8 -77.0999C270.8 -57.5999 289.1 -36.8 304.4 -15.5C312.9 -3.59995 320.5 8.40006 327.4 20.3001C346.3 52.9001 360.3 85.1001 377.1 115.4C392.9 143.9 411.6 170.6 440.1 193.9C442.9 196.2 445.8 198.4 448.8 200.6C481.9 224.9 522.8 242.1 560.9 257.5C590.4 269.5 617.9 279.3 643.9 288.7C646.5 289.6 649.1 290.6 651.8 291.5C686.3 304.2 722.4 319.6 753.1 342.7C776.2 360.1 796.6 382.8 815.6 410.2C844.7 452.2 855.6 503.6 894.7 533.5C934.2 563.7 992.4 560.5 1038.6 541.3C1069.3 528.6 1096.6 510.2 1123.8 492C1137.5 482.8 1151.2 473.7 1165.2 465.4C1221.8 431.9 1285.6 412 1349.6 406.3C1429.3 399.2 1508.7 414.3 1576.4 446.3" stroke="#031A2E" stroke-miterlimit="10"/>
<path d="M-68 -104.5C-36.7 -131.5 2.80001 -147.7 42.5 -151.7C75.2 -155 108 -150.2 137.2 -138.3C143.9 -135.6 150.3 -132.5 156.6 -129.1C188.8 -111.4 215 -85.1 242.7 -55.4C261.6 -35 280.9 -14.4 297.6 6.10004C306.9 17.5 315.3 28.7 323.1 39.6C344.5 69.5 361.1 97.5 380.2 124C398.1 148.8 418.7 172.1 448.7 193.3C451.7 195.4 454.7 197.5 457.8 199.5C492.5 222.1 534.8 240 571.7 258C600.3 272.1 625.1 284.5 648.4 296.2C650.7 297.4 653.1 298.5 655.4 299.7C686.3 315.3 718.5 333.7 745.9 359.1C766.4 378.1 784.8 402.7 804.4 430.4C833.4 471.4 846.8 518.8 885.8 546.2C925.1 573.8 981.7 570.6 1027.3 552.8C1057.6 541 1084.6 524.1 1111.6 507.5C1125.2 499.2 1138.7 491 1152.6 483.6C1208.5 453.7 1270.7 437.4 1332 435.2C1408.3 432.5 1481.8 451.9 1541.6 484.7" stroke="#031A2E" stroke-miterlimit="10"/>
<path d="M-75 -98.2999C-42.7 -125.4 -1.8 -140.7 38.6 -142.9C71.9 -144.7 104.7 -137.8 133.1 -123.8C139.6 -120.6 145.8 -117 151.8 -113.2C182.6 -93.0999 206.1 -64.3999 233.6 -33.5999C252.4 -12.3999 272.7 8.20009 290.7 27.7001C300.7 38.6001 310.1 49.1001 318.8 59.0001C342.8 86.2001 362 110 383.3 132.6C403.2 153.7 425.8 173.6 457.3 192.8C460.4 194.7 463.6 196.6 466.9 198.4C503.2 219.2 546.8 237.7 582.5 258.4C610.2 274.5 632.3 289.5 652.9 303.5C655 304.9 657 306.3 659.1 307.7C686.4 326.3 714.8 347.6 738.8 375.3C756.8 396 773 422.4 793.3 450.4C822.2 490.4 838 533.8 877 558.8C916.1 583.8 971.2 580.6 1016 564.2C1045.8 553.3 1072.7 537.9 1099.4 523C1112.8 515.5 1126.3 508.2 1140 501.7C1195.2 475.4 1255.9 462.7 1314.4 464C1387.2 465.6 1455 489.3 1506.9 523" stroke="#031A2E" stroke-miterlimit="10"/>
<path d="M-82 -92.0999C-48.7 -119.3 -6.5 -133.8 34.7 -134.2C68.5 -134.6 101.3 -125.5 128.9 -109.4C135.2 -105.7 141.2 -101.7 146.9 -97.2999C176.2 -74.6999 197.1 -43.7999 224.4 -11.7999C243.1 10.3001 264.3 30.8001 283.8 49.4001C294.6 59.8001 304.9 69.5001 314.5 78.4001C341 103 362.8 122.5 386.4 141.3C408.4 158.8 433 175.2 465.9 192.4C469.2 194.1 472.5 195.8 475.9 197.5C513.8 216.3 558.7 235.7 593.2 258.9C620 277.1 639.4 294.6 657.2 311C659 312.6 660.8 314.2 662.6 315.9C686.3 337.6 710.8 361.7 731.5 391.7C746.9 414 761.1 442.3 782 470.6C810.9 509.6 829 549 867.9 571.5C906.8 593.9 960.3 590.7 1004.5 575.7C1033.9 565.8 1060.5 551.8 1087 538.6C1100.3 532 1113.6 525.5 1127.1 519.9C1181.6 497.3 1240.8 488.1 1296.5 492.8C1365.9 498.8 1427.8 526.8 1471.9 561.3" stroke="#031A2E" stroke-miterlimit="10"/>
<path d="M-89 -85.9999C-54.8 -113.3 -11.1 -127 30.8 -125.5C65.2 -124.4 98 -113.2 124.8 -94.8999C130.9 -90.6999 136.7 -86.1999 142.1 -81.3999C170 -56.2999 188.2 -23.0999 215.3 10.1001C234 33.0001 256.1 53.4001 277 71.2001C288.6 81.0001 299.8 90.1001 310.3 98.0001C339.3 119.9 363.7 135.2 389.7 150.1C413.7 163.9 440.3 176.9 474.8 192C478.2 193.5 481.7 195 485.3 196.5C524.7 213.5 571 233.5 604.3 259.4C630.1 279.6 646.9 299.6 662 318.4C663.5 320.3 665 322.1 666.6 324C686.7 348.7 707.3 375.7 724.7 408C737.6 431.9 749.6 462.1 771.2 490.7C800 528.8 820.6 564.1 859.4 584.1C898.1 604 950.1 600.7 993.6 587.1C1022.5 578.1 1048.9 565.6 1075.2 554.1C1088.4 548.3 1101.6 542.8 1114.9 538.1C1168.7 519.1 1226.3 513.5 1279.2 521.7C1345.1 532.1 1401.3 564.3 1437.5 599.7" stroke="#031A2E" stroke-miterlimit="10"/>
<path d="M-96 -79.7999C-60.8 -107.2 -15.7 -120 26.9 -116.7C61.8 -114.1 94.7 -100.8 120.6 -80.3999C126.5 -75.7999 132.1 -70.6999 137.2 -65.3999C163.6 -37.7999 179.2 -2.29994 206.1 32.0001C224.7 55.8001 247.8 76.1001 270 92.9001C282.3 102.2 294.4 110.5 305.8 117.4C337.4 136.6 364.3 147.7 392.6 158.7C418.7 168.8 447.2 178.3 483.2 191.5C486.8 192.8 490.4 194.1 494.1 195.5C535.1 210.6 582.7 231.3 614.8 259.8C639.7 282.1 653.8 304.6 666.2 325.8C667.4 327.9 668.7 330 669.9 332.1C686.3 359.9 703.2 389.7 717.2 424.2C727.5 449.8 737.4 481.8 759.6 510.6C788.2 547.7 811.3 579 850.1 596.5C888.5 613.8 939 610.5 981.8 598.3C1010.3 590.2 1036.5 579.2 1062.5 569.4C1075.6 564.4 1088.6 559.8 1101.8 556C1154.9 540.6 1211 538.6 1261.1 550.3C1323.6 565 1374 601.6 1402.2 637.8" stroke="#031A2E" stroke-miterlimit="10"/>
<path d="M-102.9 -73.6C-66.7 -101.1 -20.2 -113.1 23.1 -108C58.6 -103.9 91.5 -88.4 116.6 -66C122.3 -60.9 127.6 -55.4 132.5 -49.6C157.5 -19.5 170.4 18.2 197.1 53.7C215.6 78.3 239.6 98.6 263.3 114.5C276.4 123.3 289.4 130.8 301.7 136.8C335.9 153.3 365.3 160.3 395.9 167.4C424 173.9 454.5 179.9 492 191.1C495.7 192.2 499.5 193.3 503.3 194.5C545.8 207.7 594.8 229.2 625.6 260.3C649.6 284.6 661 309.7 670.7 333.2C671.7 335.5 672.6 337.8 673.6 340.1C686.4 371 699.5 403.5 710.1 440.4C717.9 467.6 725.6 501.5 748.5 530.6C777 566.8 802.5 594.1 841.3 609C879.5 623.7 928.5 620.4 970.6 609.7C998.6 602.6 1024.6 593 1050.4 584.9C1063.4 580.8 1076.3 577.1 1089.3 574.1C1141.6 562.3 1196.2 563.9 1243.6 579.1C1302.6 598.2 1347.2 639 1367.6 676.1" stroke="#031A2E" stroke-miterlimit="10"/>
<path d="M-109.9 -67.4C-72.7 -95 -24.8 -106.2 19.1 -99.2C55.1 -93.6 88.1 -76 112.4 -51.5C117.9 -45.9 123 -39.8999 127.6 -33.6999C151.1 -1.19994 161.3 38.9 188 75.6C206.4 101 231.4 121.3 256.5 136.3C270.4 144.6 284.3 151.4 297.5 156.4C334.2 170.2 366.2 173.1 399.1 176.2C429.2 179.1 461.8 181.6 500.7 190.7C504.6 191.6 508.5 192.6 512.5 193.6C556.5 205 606.9 227.1 636.5 260.8C659.6 287.2 668.3 314.8 675.2 340.7C675.9 343.3 676.6 345.8 677.3 348.3C686.4 382.2 695.7 417.6 703 456.8C708.3 485.6 713.8 521.5 737.4 550.8C765.8 586.1 793.7 609.3 832.5 621.7C870.5 633.9 917.9 630.5 959.4 621.2C987 615 1012.7 606.9 1038.3 600.5C1051.1 597.2 1063.9 594.4 1076.8 592.4C1128.4 584.2 1181.5 589.4 1226.1 608.1C1281.7 631.5 1320.5 676.7 1333 714.6" stroke="#031A2E" stroke-miterlimit="10"/>
<path d="M-116.9 -61.2C-78.7 -88.9 -29.5 -99.2 15.2 -90.4C51.8 -83.3 84.8 -63.6 108.2 -36.9C113.5 -30.8 118.4 -24.4 122.7 -17.6C144.8 17.4 152.3 59.7 178.8 97.6C197.1 123.9 223.1 144 249.5 158.1C264.2 165.9 279 171.9 293.1 175.9C332.4 187 366.9 185.7 402.2 184.9C434.4 184.2 468.9 183.2 509.3 190.3C513.3 191 517.4 191.8 521.5 192.6C567.1 202.2 618.8 225 647.2 261.2C669.4 289.6 675.4 319.8 679.6 348C680 350.8 680.4 353.6 680.9 356.3C686.3 393.3 691.9 431.5 695.8 473C698.6 503.4 701.9 541.2 726.2 570.8C754.4 605.1 784.8 624.4 823.6 634.2C861.3 643.8 907.3 640.4 948.1 632.5C975.2 627.2 1000.8 620.6 1026.1 615.8C1038.8 613.4 1051.5 611.4 1064.2 610.3C1115.1 605.7 1166.7 614.4 1208.5 636.7C1260.6 664.5 1293.7 713.9 1298.2 752.7" stroke="#031A2E" stroke-miterlimit="10"/>
<path d="M-123.9 -55C-84.8 -82.8 -34.1 -92.3 11.3 -81.7C48.4 -73.0999 81.5 -51.3 104.1 -22.5C109.3 -15.9 113.9 -8.99994 117.9 -1.79994C138.5 35.7001 143.4 80.3001 169.7 119.3C187.9 146.4 214.8 166.5 242.7 179.7C258.1 187 273.9 192.3 288.8 195.3C330.6 203.7 367.7 198.3 405.3 193.6C439.5 189.3 476 184.8 517.9 189.9C522.1 190.4 526.3 191 530.6 191.7C577.7 199.5 630.8 222.9 658 261.8C679.2 292.3 682.6 325 684.1 355.6C684.2 358.6 684.4 361.6 684.5 364.6C686.3 404.6 688.1 445.6 688.5 489.5C688.8 521.6 689.9 561.2 714.9 591.1C742.9 624.5 775.8 639.7 814.6 647.1C852.1 654.2 896.5 650.7 936.6 644.2C963.3 639.9 988.6 634.8 1013.7 631.6C1026.3 630 1038.8 629 1051.3 628.7C1101.5 627.7 1151.5 640 1190.5 665.8C1239.2 697.9 1266.4 751.7 1263.1 791.3" stroke="#031A2E" stroke-miterlimit="10"/>
<path d="M-130.9 -48.9C-90.8 -76.8 -38.7 -85.5 7.40001 -73C45.1 -62.9 78.2 -39 99.9 -8.09997C104.9 -0.999968 109.2 6.40004 112.9 14.1C132.1 54.1 134.3 101 160.4 141.2C178.5 169.2 206.4 189.2 235.7 201.4C251.9 208.2 268.6 212.7 284.4 214.7C328.8 220.4 368.5 210.9 408.3 202.2C444.6 194.3 483.1 186.3 526.4 189.4C530.7 189.7 535.1 190.1 539.5 190.6C588.2 196.5 642.6 220.6 668.6 262.1C688.9 294.6 689.7 329.9 688.4 362.8C688.3 366.1 688.1 369.3 688 372.5C686.1 415.6 684.2 459.4 681.2 505.5C679 539.2 677.9 580.8 703.6 610.9C731.5 643.4 766.8 654.6 805.5 659.4C842.7 664 885.7 660.4 925.1 655.3C951.3 651.9 976.4 648.3 1001.3 646.8C1013.8 646 1026.2 645.9 1038.5 646.6C1088 649.2 1136.5 665.1 1172.7 694.3C1217.9 730.8 1239.4 788.8 1228.2 829.3" stroke="#031A2E" stroke-miterlimit="10"/>
<path d="M-137.9 -42.6999C-96.8 -70.6999 -43.3 -78.5 3.50002 -64.2C41.7 -52.6 74.8 -26.6 95.8 6.40003C100.6 13.9 104.7 21.8 108.1 30C125.8 72.4 125.4 121.6 151.3 163C169.3 191.8 198.2 211.7 228.8 223.1C245.8 229.4 263.3 233.1 280.1 234.2C327.1 237.1 369.3 223.6 411.4 210.9C449.7 199.4 490.2 187.9 535 188.9C539.5 189 544 189.2 548.5 189.6C598.7 193.6 654.4 218.5 679.3 262.6C698.7 297.1 696.9 335 692.7 370.3C692.3 373.8 691.9 377.2 691.5 380.7C685.8 426.8 680.3 473.5 673.9 521.9C669.2 557.2 665.8 600.8 692.3 631.1C720 662.7 757.8 669.9 796.5 672.1C833.5 674.2 874.9 670.5 913.7 666.8C939.4 664.3 964.4 662.2 989 662.4C1001.3 662.5 1013.6 663.2 1025.8 664.8C1074.6 671 1121.5 690.5 1155 723.2C1196.8 764.1 1212.4 826.4 1193.3 867.7" stroke="#031A2E" stroke-miterlimit="10"/>
<path d="M-144.9 -36.5C-102.8 -64.6 -47.9 -71.6 -0.400009 -55.5C38.4 -42.4 71.5 -14.3 91.7 20.9C96.3 28.9 100.2 37.3 103.3 45.9C119.6 90.8 116.5 142.3 142.2 184.8C160.1 214.5 189.9 234.3 222 244.8C239.7 250.6 258.2 253.5 275.9 253.6C325.4 253.8 370.3 236.3 414.6 219.6C455 204.5 497.4 189.5 543.7 188.5C548.3 188.4 553 188.4 557.7 188.6C609.5 190.8 666.5 216.3 690.2 263C708.7 299.6 704.2 339.9 697.3 377.7C696.6 381.4 695.9 385.1 695.3 388.8C685.9 438 676.8 487.5 666.9 538.2C659.8 575.2 654.1 620.6 681.3 651.2C708.8 682 749.2 685.1 787.8 684.7C824.5 684.3 864.5 680.5 902.5 678.2C927.8 676.6 952.5 676 976.9 677.9C989.1 678.8 1001.3 680.5 1013.3 682.9C1061.4 692.8 1106.8 715.8 1137.5 752C1175.8 797.2 1185.7 863.8 1158.7 906" stroke="#031A2E" stroke-miterlimit="10"/>
<path d="M-151.8 -30.2999C-108.8 -58.4999 -52.5 -64.5999 -4.20001 -46.6999C35.1 -32.0999 68.3 -1.89997 87.6 35.4C92 43.9 95.7 52.8 98.5 61.9C113.3 109.3 107.6 163 133.1 206.8C151 237.3 181.7 257.1 215.2 266.6C233.7 271.9 253.1 274.1 271.6 273.2C323.6 270.7 371.1 249.1 417.8 228.4C460.3 209.7 504.7 191.1 552.5 188.2C557.3 187.9 562.1 187.8 566.9 187.8C620.2 188.1 678.6 214.4 701.1 263.6C718.7 302.2 711.5 345.1 701.9 385.2C701 389.1 700 393.1 699 397C686 449.2 673.1 501.6 659.8 554.6C650.2 593.2 642.2 640.6 670.2 671.3C697.5 701.2 740.4 700.4 779 697.3C815.5 694.4 854 690.5 891.3 689.6C916.1 689 940.7 689.8 964.8 693.4C976.9 695.2 988.9 697.7 1000.8 701.1C1048.2 714.6 1092 741.2 1120 780.9C1154.9 830.5 1159 901.4 1124.1 944.4" stroke="#031A2E" stroke-miterlimit="10"/>
<path d="M-158.8 -24.0999C-114.8 -52.3999 -57.1 -57.6999 -8.10001 -37.9999C40.9 -18.2999 79.8 26.1001 93.7 77.7001C107.1 127.6 98.6 183.6 124.1 228.5C151.7 277.2 212.9 297.7 267.4 292.5C321.9 287.3 372 261.5 421 237C470 212.4 521.2 188.2 576 186.7C630.8 185.2 690.6 212.1 711.9 264C730.2 308.7 716.5 359.1 702.7 405C686 460.3 669.4 515.5 652.7 570.8C640.6 611.1 630.3 660.4 659.1 691.3C686.2 720.3 731.6 715.5 770.2 709.8C830.6 700.9 892.7 695.7 952.7 708.8C1012.7 721.9 1071 755.7 1102.4 809.6C1133.8 863.5 1132.1 938.7 1089.3 982.6" stroke="#031A2E" stroke-miterlimit="10"/>
<path d="M-123.5 -41.6999C-80.1 -61.8999 -27.6 -59.2999 13.9 -36.1999C55.5 -13.0999 85.2 30.4001 94.6 83.2001C103.5 133.2 94.4 190.1 118.7 236.6C145.1 286.7 205.4 310.5 260.8 306.5C314.2 302.7 363.1 277.5 411.5 254.9C462.3 231.1 515.7 208.7 572.2 207C626.5 205.4 685.8 230.7 707.8 281.4C726.8 325.1 714.2 375.4 700.8 420.9C684.7 475.3 668 529.4 651.8 583.8C639.9 624.1 630.4 673.3 659.2 704.2C686.4 733.4 731.9 729.3 770.7 723.8C830 715.3 890.9 709.7 949.8 722.5C1008.9 735.3 1066 768.8 1096.9 821.9C1127.8 875 1126.4 948.7 1085.2 992.5" stroke="#031A2E" stroke-miterlimit="10"/>
<path d="M-88.3 -59.3C-45.4 -71.5 1.69999 -60.9 35.8 -34.4C70 -7.89998 90.6 34.6 95.5 88.6C100.1 138.7 90.1 196.5 113.4 244.6C138.4 296.1 198.1 323.1 254.2 320.4C306.3 317.9 354.2 293.5 402 272.8C454.7 249.8 510.2 229.2 568.5 227.4C622.3 225.8 681.1 249.4 703.8 299C723.5 341.8 712 391.8 699 437.1C683.5 490.6 666.7 543.7 651 597.1C639.3 637.4 630.7 686.5 659.4 717.4C686.7 746.8 732.4 743.4 771.4 738C829.6 729.8 889.2 724 947 736.4C1005.1 748.9 1061.2 782.2 1091.5 834.5C1121.8 886.8 1120.7 959 1081.1 1002.7" stroke="#031A2E" stroke-miterlimit="10"/>
<path d="M-53 -76.8999C-10.7 -80.9999 31 -62.5999 57.8 -32.6999C84.5 -2.89992 96.1 38.7001 96.4 94.0001C96.7 144 85.8 202.9 108.1 252.5C131.8 305.4 190.7 335.6 247.6 334.2C298.5 333 345.4 309.5 392.5 290.5C447.1 268.4 504.7 249.5 564.7 247.5C617.9 245.9 676.3 267.8 699.8 316.2C720.2 358.1 709.9 407.9 697.2 452.8C682.2 505.4 665.4 557.4 650.3 609.9C638.9 650.3 631 699.2 659.7 730.1C687.1 759.7 732.9 757 772.2 751.8C829.3 744.1 887.7 737.8 944.3 749.9C1001.5 762.1 1056.5 795.1 1086.1 846.6C1115.8 898.1 1115 968.7 1077 1012.4" stroke="#031A2E" stroke-miterlimit="10"/>
<path d="M-17.7 -94.4999C24 -90.4999 60.4 -64.3999 79.8 -30.8999C99 2.10007 101.7 42.7001 97.3 99.4001C93.4 149.3 81.5 209.3 102.7 260.5C125.2 314.7 183.3 350.8 240.9 348.1C290.4 345.7 336.6 325.7 382.9 308.3C439.5 287.1 499.1 269.9 560.8 267.8C613.5 266.1 671.4 286.4 695.6 333.6C716.7 374.5 707.5 424.1 695.2 468.7C680.8 520.4 663.7 571.3 649.3 623C638 663.4 631.1 712.1 659.6 743.1C687.1 772.9 733.1 770.9 772.5 765.8C828.4 758.5 885.6 751.9 941.1 763.7C997.3 775.6 1051.2 808.4 1080.3 859.1C1109.4 909.8 1108.9 978.9 1072.6 1022.5" stroke="#031A2E" stroke-miterlimit="10"/>
<path d="M17.6 -112.1C58.7 -100 89.7 -66.3 101.8 -29.2C113.5 6.90003 107.5 46.6 98.3 104.8C90.4 154.6 77.4 215.7 97.5 268.5C118.7 324.1 176 363.8 234.4 362C282.7 360.5 327.9 341.9 373.4 326.2C432 306 493.6 290.4 557.1 288.2C609.3 286.5 666.7 305.1 691.6 351.2C713.3 391.2 705.3 440.6 693.4 484.9C679.5 535.7 662.4 585.6 648.5 636.3C637.4 676.7 631.3 725.3 659.8 756.2C687.4 786.2 733.5 784.9 773.2 779.9C828 773 884 766 938.3 777.5C993.6 789.1 1046.4 821.7 1074.9 871.5C1103.4 921.3 1103.3 988.9 1068.5 1032.4" stroke="#031A2E" stroke-miterlimit="10"/>
<path d="M52.8 -129.7C93.4 -109.6 119.1 -68.1999 123.7 -27.3999C128.1 11.8001 113.3 50.6001 99.1 110.2C87.3 159.8 73 222.1 92.1 276.5C112 333.5 168.5 373.1 227.8 375.9C274.8 378.1 319.3 358.2 363.9 344C424.6 324.8 488.2 310.8 553.3 308.4C604.9 306.7 661.8 323.6 687.5 368.5C709.9 407.5 703.1 456.7 691.5 500.7C678.3 550.6 661 599.4 647.6 649.2C636.7 689.6 631.5 738.1 659.9 769C687.6 799.2 733.8 798.6 773.8 793.8C827.5 787.3 882.2 780 935.4 791.1C989.7 802.4 1041.5 834.7 1069.4 883.7C1097.3 932.7 1097.5 998.8 1064.3 1042.2" stroke="#031A2E" stroke-miterlimit="10"/>
<path d="M88.1 -147.3C128.1 -119.1 148.7 -70.0999 145.7 -25.6999C142.8 16.5001 119.3 54.6001 100.1 115.5C84.5 165 68.9 228.4 86.8 284.4C105.5 342.7 161.1 385.4 221.2 389.7C266.9 392.9 310.6 374.4 354.4 361.8C417.2 343.7 482.7 331.1 549.5 328.7C600.6 326.9 657 342.1 683.5 385.9C706.6 424 700.9 473 689.7 516.6C677.1 565.6 659.7 613.3 646.8 662.3C636.2 702.7 631.7 751 660.1 782C688 812.4 734.2 812.5 774.4 807.8C826.9 801.7 880.5 794.1 932.6 804.8C986 815.8 1036.6 847.9 1064 896.1C1091.4 944.3 1091.8 1008.8 1060.3 1052.2" stroke="#031A2E" stroke-miterlimit="10"/>
<path d="M123.4 -164.9C162.8 -128.6 178.3 -72 167.7 -23.9C157.6 21.4 125.4 58.6 101 121C81.7 170.4 64.6 234.8 81.5 292.5C98.9 352.1 153.7 397.7 214.6 403.6C259 407.8 302 390.9 344.9 379.6C409.8 362.6 477.2 351.5 545.7 348.9C596.2 347.1 652.2 360.6 679.4 403.3C703.2 440.4 698.7 489.2 687.8 532.6C675.7 580.7 658.3 627.4 645.9 675.4C635.5 715.9 631.9 764 660.2 795C688.2 825.6 734.6 826.4 775 821.9C826.4 816.1 878.7 808.2 929.7 818.7C982.1 829.4 1031.7 861.3 1058.5 908.6C1085.3 956 1086 1019 1056.1 1062.3" stroke="#031A2E" stroke-miterlimit="10"/>
<path d="M158.7 -182.5C197.6 -138.2 208 -73.8999 189.7 -22.1999C172.5 26.3001 131.6 62.7001 101.9 126.3C78.9 175.7 60.4 241.1 76.2 300.3C92.4 361.3 146.3 409.9 208 417.4C251.1 422.6 293.3 407.2 335.4 397.4C402.5 381.7 471.7 371.9 542 369.2C592 367.4 647.5 379.2 675.4 420.7C699.9 456.9 696.5 505.5 686 548.5C674.5 595.7 657 641.3 645.2 688.4C635 728.9 632.2 776.9 660.5 807.9C688.6 838.7 735.1 840.2 775.8 835.8C826.1 830.4 877.2 822.2 927 832.3C978.5 842.7 1026.9 874.3 1053.2 920.9C1079.5 967.5 1080.5 1028.9 1052.1 1072.2" stroke="#031A2E" stroke-miterlimit="10"/>
<path d="M194 -200.1C232.3 -147.7 237.7 -75.6 211.7 -20.4C187.3 31.3 137.9 66.9 102.9 131.8C76.3 181.2 56.3 247.6 70.9 308.4C85.9 370.8 138.9 422.3 201.4 431.4C243.3 437.5 284.7 423.9 325.9 415.3C395.1 400.9 466.2 392.4 538.2 389.5C587.7 387.6 642.7 397.8 671.4 438.2C696.6 473.4 694.3 521.8 684.2 564.5C673.3 610.8 655.7 655.3 644.4 701.6C634.5 742.1 632.5 790 660.7 820.9C688.9 851.9 735.5 854.1 776.4 849.9C825.5 844.8 875.4 836.3 924.1 846.1C974.6 856.2 1022 887.6 1047.7 933.3C1073.4 979 1074.7 1039 1048 1082.1" stroke="#031A2E" stroke-miterlimit="10"/>
<path d="M229.2 -217.7C266.9 -157.2 267.3 -77.3999 233.6 -18.6999C202.1 36.2001 144.1 71.1 103.7 137.1C73.5 186.5 52 253.9 65.5 316.3C79.3 380 131.5 434.3 194.8 445.1C235.4 452.1 276.1 440.3 316.4 433C387.8 420.1 460.7 412.7 534.4 409.7C583.3 407.8 637.9 416.3 667.3 455.5C693.2 489.8 692 538 682.3 580.4C671.9 625.8 654.3 669.3 643.5 714.6C633.8 755.2 632.6 802.8 660.8 833.8C689.1 865 735.9 867.8 777 863.8C825 859.1 873.7 850.3 921.2 859.8C970.8 869.7 1017.1 900.8 1042.2 945.7C1067.3 990.6 1068.9 1049 1043.8 1092.1" stroke="#031A2E" stroke-miterlimit="10"/>
<path d="M264.5 -235.3C301.6 -166.7 297 -79.0999 255.5 -16.8999C216.8 41.2001 150.4 75.4001 104.5 142.6C70.7 192.2 47.7 260.3 60.1 324.4C72.7 389.5 124 446.5 188.1 459.1C227.4 466.9 267.4 457 306.8 450.9C380.4 439.6 455.2 433.2 530.5 430C578.9 428.1 633 434.9 663.1 472.9C689.7 506.3 689.6 554.2 680.3 596.3C670.5 640.8 652.8 683.2 642.5 727.6C633.1 768.2 632.7 815.7 660.8 846.7C689.2 878.1 736.1 881.6 777.5 877.7C824.4 873.3 871.8 864.2 918.2 873.4C966.9 883 1012 913.8 1036.5 957.9C1061 1002 1062.9 1058.9 1039.4 1101.9" stroke="#031A2E" stroke-miterlimit="10"/>
<path d="M299.8 -252.9C336.4 -176.3 326.6 -80.8 277.5 -15.1C231.6 46.3 156.8 79.8 105.5 148C68.1 197.7 43.6 266.7 54.8 332.4C66.2 398.8 116.7 458.5 181.5 473C219.6 481.6 258.8 473.7 297.3 468.8C373.1 459.2 449.7 453.7 526.8 450.4C574.6 448.4 628.2 453.6 659.2 490.5C686.5 522.9 687.5 570.6 678.6 612.4C669.2 656 651.6 697.4 641.8 740.8C632.6 781.4 633 828.8 661 859.8C689.5 891.4 736.5 895.6 778.1 891.9C823.8 887.8 870.1 878.5 915.4 887.3C963.1 896.6 1007.2 927.2 1031.1 970.4C1055 1013.6 1057.3 1069 1035.4 1112" stroke="#031A2E" stroke-miterlimit="10"/>
<path d="M335.1 -270.5C371.1 -185.8 356.3 -82.5999 299.5 -13.3999C246.5 51.3001 163.2 84.1001 106.4 153.3C65.5 203.2 39.5 273 49.5 340.2C59.8 407.9 109.4 470.2 174.9 486.7C211.8 496 250.2 490.2 287.7 486.4C365.6 478.6 444.1 473.9 522.9 470.4C570.2 468.4 623.3 471.9 655 507.6C683 539.1 685.1 586.6 676.6 628.1C667.8 670.8 650.3 711.1 640.8 753.7C632 794.4 633.1 841.6 661 872.6C689.7 904.4 736.7 909.1 778.6 905.7C823.2 901.9 868.2 892.4 912.4 900.8C959.2 909.8 1002.2 940.2 1025.5 982.6C1048.9 1025 1051.4 1078.9 1031.1 1121.8" stroke="#031A2E" stroke-miterlimit="10"/>
<path d="M370.4 -288.1C405.8 -195.3 386 -84.2 321.5 -11.6C261.3 56.4 169.6 88.7001 107.4 158.8C62.9 209 35.3 279.5 44.3 348.3C53.3 417.4 102.3 482.1 168.4 500.7C204.1 510.7 241.6 507 278.3 504.4C358.4 498.6 438.7 494.4 519.2 490.9C566 488.9 618.6 490.7 651 525.2C679.7 555.7 682.9 603 674.8 644.2C666.5 686 648.9 725.3 640.1 766.9C631.5 807.6 633.4 854.6 661.3 885.7C690.1 917.7 737.3 923.1 779.4 919.9C822.9 916.4 866.7 906.6 909.7 914.8C955.5 923.5 997.4 953.6 1020.2 995.2C1043 1036.8 1045.8 1089.1 1027.1 1131.9" stroke="#031A2E" stroke-miterlimit="10"/>
<path d="M405.6 -305.7C440.4 -204.9 415.5 -85.9 343.4 -9.89996C276 61.3 175.9 93.1 108.2 164.1C60.1 214.5 31 285.7 38.8 356.2C46.6 426.7 94.9 493.7 161.7 514.5C196.2 525.2 232.9 523.7 268.7 522.1C350.9 518.4 433.1 514.7 515.3 511.1C561.5 509 613.7 509.2 646.8 542.6C676.1 572.2 680.5 619.3 672.8 660.1C665.1 701 647.4 739.2 639.1 779.9C630.8 820.6 633.4 867.5 661.3 898.5C690.2 930.7 737.5 936.8 779.8 933.7C822.1 930.6 864.7 920.5 906.6 928.3C951.5 936.7 992.3 966.6 1014.5 1007.4C1036.7 1048.2 1039.8 1099 1022.8 1141.7" stroke="#031A2E" stroke-miterlimit="10"/>
</g>
<mask id="mask2_3_601" style="mask-type:luminance" maskUnits="userSpaceOnUse" x="0" y="0" width="1200" height="800">
<path d="M1200 0H0V800H1200V0Z" fill="white"/>
</mask>
<g mask="url(#mask2_3_601)">
<path d="M66.9 -30.8C117.7 -25.9 164.8 7.39999 186.4 53.6C208 99.8 203.3 157.3 174.4 199.4C147.8 238.2 102.7 264.5 86.7 308.7C69.6 356.2 94.7 412.5 137.6 439.1C213.6 486.1 320.9 448.3 374.5 383.8C393.5 361 405.4 334 427.3 313.5C462.1 280.9 503.6 274.9 546.2 258.2C587.5 242 622.9 211.8 645 173.3C674.1 122.7 686.4 37 649.5 -13.3C629.4 -40.7 591.6 -56.4 559.7 -44.5L66.9 -30.8Z" fill="#013440"/>
</g>
<mask id="mask3_3_601" style="mask-type:luminance" maskUnits="userSpaceOnUse" x="0" y="0" width="1200" height="800">
<path d="M1200 0H0V800H1200V0Z" fill="white"/>
</mask>
<g mask="url(#mask3_3_601)">
<path d="M1381.9 534.2C1333.7 512.8 1278.2 514 1226.4 524.2C1148.7 539.5 1075.2 574.2 995.4 578.6C930.4 582.2 876.6 559.4 823.5 524.2C788.4 500.9 754.4 475.2 715.4 458.5C610.6 413.7 475.9 449.6 407.3 540.6C364.2 597.8 346.8 669.7 315.8 734.2C284.8 798.7 230.5 861.4 159 865.4V940.9H1382L1381.9 534.2Z" fill="#013440"/>
</g>
<mask id="mask4_3_601" style="mask-type:luminance" maskUnits="userSpaceOnUse" x="0" y="0" width="1200" height="800">
<path d="M1200 0H0V800H1200V0Z" fill="white"/>
</mask>
<g mask="url(#mask4_3_601)">
<path d="M218.6 -50.7C268.7 -73 328.8 -70.3 376.7 -43.6C424.7 -16.9 459.5 33.3 468.4 88.5C479.7 158.7 451.5 235 480.3 299.8C504.7 354.7 562.4 384 614.8 411.4C667.3 438.9 723.3 474.6 738.2 533C748.3 572.4 737.7 617.3 757.4 652.6C777.5 688.5 823 701.7 863.2 697.7C903.4 693.8 941 676.4 980 665.4C1098 631.9 1231 659.5 1326.9 737.6" stroke="#013440" stroke-miterlimit="10"/>
<path d="M213.5 -48.7C245 -62.4 280.5 -65.9 313.9 -59.6C334.2 -55.8 353.8 -48.4 371.4 -37.7C383.1 -30.5 393.9 -21.9 403.6 -12.2C426.8 11.2 443.4 41 453 73.6C455.3 81.4 457.2 89.3 458.6 97.3C463.5 124.5 463.5 152.2 463.3 179.2C463 214.3 462.2 248.4 472.5 280.2C474.8 287.2 477.6 294.2 481.1 301C493.7 325.6 513.4 344.8 536.2 361.5C561.6 380.1 590.9 395.7 617.6 411.2C621.2 413.3 624.8 415.4 628.4 417.6C654.5 433.5 679.5 451.6 698.8 473.8C714.2 491.4 725.9 511.8 730.9 535.8C733.6 548.6 734.2 562 734.3 575.4C734.7 603.2 733.3 631.7 746.6 655.8C764 687.2 801.1 700.9 836.8 701.4C841.8 701.5 846.7 701.3 851.6 700.9C891.5 697.5 928.9 681.4 967.5 671.6C977.2 669.1 987 667.1 996.8 665.4C1051.3 656.3 1107.6 660.1 1160.1 675.3C1212.4 690.5 1260.6 717 1300.3 752" stroke="#013E49" stroke-miterlimit="10"/>
<path d="M208.4 -46.6C240.3 -60.1 276.1 -62.8 309.4 -55.5C329.6 -51.1 348.9 -43 366 -31.6C377.4 -24 387.8 -15 396.9 -4.89999C418.8 19.3 433.6 49.6 443 82.4C445.3 90.3 447.2 98.3 448.8 106.3C454.3 133.6 455.8 160.8 457.1 186.9C458.8 220.7 460.2 252.8 472.1 282.8C474.7 289.4 477.8 296 481.6 302.4C495.2 325.6 515.6 343.8 538.8 360.2C564.7 378.4 594.2 394.7 620 411.2C623.5 413.4 626.9 415.7 630.3 418C655.2 435 677.8 453.8 695 476.4C708.8 494.3 719 514.8 723 538.7C725.1 551.5 725.2 564.9 724.9 578.3C724.3 606.1 722 634.7 735.3 659.2C752.4 690.4 789.4 703.8 824.8 704.6C829.7 704.7 834.6 704.6 839.5 704.2C879.1 701.3 916.3 686.5 954.5 677.9C964.1 675.7 973.8 674 983.5 672.7C1037.3 665.3 1092.5 670.8 1142.8 687.7C1192.9 704.5 1237.7 732.4 1273.4 766.7" stroke="#014752" stroke-miterlimit="10"/>
<path d="M203.4 -44.5C235.7 -57.7 271.9 -59.8 305.1 -51.5C325.2 -46.5 344.2 -37.7 360.7 -25.6C371.7 -17.6 381.7 -8.2 390.3 2.3C410.9 27.3 423.8 58 433.2 91.2C435.4 99.2 437.5 107.2 439.2 115.2C445.2 142.5 448.3 169.4 451.2 194.5C455 227.1 458.6 257.1 472 285.2C475 291.4 478.4 297.6 482.5 303.6C497.1 325.4 518.2 342.6 541.9 358.6C568.3 376.5 598 393.3 622.9 410.9C626.3 413.3 629.6 415.7 632.8 418.1C656.5 436.1 676.7 455.8 691.9 478.7C704 496.9 712.9 517.5 715.7 541.4C717.2 554.2 716.8 567.5 716 580.9C714.4 608.6 711.2 637.5 724.5 662.2C741.4 693.2 778.2 706.4 813.3 707.4C818.2 707.5 823 707.5 827.8 707.2C867.1 704.8 904.1 691.2 941.9 683.9C951.4 682 961 680.6 970.6 679.6C1023.7 673.9 1077.8 681.2 1126 699.6C1174 718 1215.3 747.3 1246.9 780.9" stroke="#02515B" stroke-miterlimit="10"/>
<path d="M198.3 -42.4C231 -55.4 267.6 -56.8 300.6 -47.4C320.6 -41.8 339.3 -32.2 355.3 -19.6C366 -11.2 375.5 -1.29997 383.5 9.40003C402.8 35.2 413.9 66.4 423.1 99.9C425.3 108 427.4 116.1 429.4 124.1C436 151.5 440.6 178 445.1 202.1C451 233.4 456.8 261.4 471.8 287.7C475.1 293.5 478.9 299.2 483.2 304.9C498.9 325.3 520.6 341.5 544.7 357.2C571.6 374.7 601.4 392.2 625.5 410.8C628.7 413.3 631.9 415.8 635 418.5C657.5 437.6 675.3 458 688.5 481.4C699 499.9 706.5 520.6 708.2 544.5C709.1 557.3 708.2 570.6 706.9 583.9C704.4 611.5 700.1 640.7 713.5 665.7C730 696.6 766.8 709.4 801.6 710.7C806.4 710.9 811.3 710.9 816 710.6C855 708.7 891.8 696.4 929.2 690.3C938.6 688.8 948.1 687.6 957.5 686.9C1009.9 682.9 1062.9 692 1108.9 712C1154.7 732 1192.6 762.7 1220.1 795.6" stroke="#025B64" stroke-miterlimit="10"/>
<path d="M193.2 -40.3C226.3 -53.1 263.3 -53.8 296.2 -43.4C316.1 -37.1 334.5 -26.9 350 -13.6C360.4 -4.7 369.4 5.50002 376.9 16.6C394.9 43.2 404.1 74.9 413.2 108.7C415.4 116.9 417.6 125 419.7 133C426.8 160.4 433 186.6 439.1 209.7C447 239.8 455.1 265.8 471.6 290.2C475.3 295.6 479.3 300.9 484 306.2C500.7 325.2 523.1 340.4 547.7 355.8C575.2 372.9 605.1 391.1 628.3 410.7C631.4 413.3 634.4 416 637.3 418.8C658.6 439 673.9 460.2 685.1 483.9C694 502.7 700.1 523.6 700.7 547.4C701 560.2 699.6 573.5 697.9 586.8C694.4 614.3 689.2 643.8 702.6 669C718.9 699.7 755.5 712.3 790 713.8C794.8 714 799.6 714 804.3 713.9C843 712.5 879.6 701.5 916.6 696.6C925.9 695.4 935.2 694.5 944.6 694.1C996.3 691.8 1048.1 702.6 1092 724.3C1135.7 745.9 1170.2 778 1193.5 810.2" stroke="#02646D" stroke-miterlimit="10"/>
<path d="M188.1 -38.2C221.6 -50.8 259 -50.7 291.7 -39.3C311.5 -32.4 329.6 -21.5 344.6 -7.50002C354.6 1.79998 363.2 12.4 370.2 23.8C386.8 51.3 394.2 83.3 403.2 117.5C405.4 125.8 407.6 133.9 409.9 142C417.6 169.5 425.2 195.2 433 217.4C443 246.2 453.3 270.2 471.4 292.8C475.4 297.8 479.8 302.7 484.7 307.6C502.4 325.2 525.5 339.4 550.5 354.5C578.5 371.3 608.6 390.1 630.9 410.7C633.9 413.5 636.8 416.3 639.5 419.2C659.6 440.4 672.5 462.4 681.7 486.5C688.9 505.6 693.7 526.6 693.1 550.4C692.8 563.2 690.9 576.5 688.7 589.7C684.2 617.1 678.1 646.9 691.5 672.4C707.5 703 744 715.2 778.2 717C783 717.3 787.7 717.3 792.4 717.2C830.7 716.3 867.2 706.5 903.8 702.9C913 702 922.2 701.5 931.5 701.4C982.5 700.8 1033.2 713.4 1074.9 736.7C1116.4 759.9 1147.5 793.4 1166.7 824.9" stroke="#026E77" stroke-miterlimit="10"/>
<path d="M183.1 -36.1999C216.9 -48.5999 254.8 -47.8 287.3 -35.4C307 -27.9 324.8 -16.3 339.3 -1.59997C349 8.10003 357.1 19.1 363.5 30.9C378.8 59.2 384.4 91.7001 393.3 126.2C395.4 134.5 397.8 142.8 400.2 150.9C408.4 178.4 417.6 203.8 427 225C439.1 252.6 451.5 274.5 471.2 295.2C475.5 299.8 480.2 304.3 485.5 308.8C504.2 325 528.1 338.3 553.5 352.9C582 369.3 612.3 388.7 633.7 410.5C636.6 413.4 639.3 416.4 641.9 419.4C660.8 441.7 671.3 464.4 678.4 488.9C684 508.2 687.3 529.4 685.7 553.1C684.8 565.9 682.4 579.1 679.7 592.4C674.3 619.8 667.2 649.7 680.5 675.5C696.3 705.9 732.6 717.9 766.5 719.9C771.2 720.2 775.9 720.3 780.6 720.3C818.6 720 854.9 711.4 891.1 709C900.2 708.4 909.3 708.2 918.4 708.4C968.7 709.5 1018.3 723.9 1057.8 748.7C1097.2 773.5 1124.8 808.4 1140 839.2" stroke="#027880" stroke-miterlimit="10"/>
<path d="M178 -34.1C212.2 -46.3 250.4 -44.7999 282.9 -31.2999C302.5 -23.1999 320 -10.8 334 4.40003C343.3 14.6 351 26 356.9 38.1C370.9 67.2 374.6 100.1 383.4 135C385.5 143.4 387.9 151.7 390.5 159.8C399.2 187.4 410 212.4 421 232.6C435.2 258.9 449.8 278.9 471 297.7C475.7 301.8 480.7 306 486.2 310.1C506 324.9 530.5 337.2 556.4 351.5C585.4 367.5 615.9 387.6 636.3 410.4C639 413.4 641.6 416.6 644.1 419.7C661.8 443.1 669.9 466.5 675 491.4C679 511 680.9 532.3 678.2 556C676.7 568.8 673.8 582 670.7 595.2C664.3 622.5 656.3 652.7 669.6 678.8C685.1 709 721.3 720.7 754.9 723C759.6 723.3 764.2 723.5 768.8 723.5C806.5 723.7 842.6 716.4 878.5 715.2C887.5 714.9 896.5 715 905.5 715.5C955.1 718.3 1003.5 734.5 1040.9 760.9C1078.1 787.3 1102.3 823.6 1113.4 853.7" stroke="#038189" stroke-miterlimit="10"/>
<path d="M172.9 -32C207.5 -44 246.1 -41.8 278.4 -27.3C297.9 -18.6 315.1 -5.49997 328.6 10.4C337.6 21 344.9 32.8001 350.2 45.2001C362.9 75.1 364.8 108.5 373.4 143.7C375.5 152.2 378 160.6 380.7 168.7C390 196.4 402.3 220.9 414.9 240.3C431.1 265.4 447.9 283.3 470.8 300.3C475.8 304 481.2 307.8 486.9 311.5C507.7 324.9 532.9 336.2 559.2 350.2C588.7 365.9 619.4 386.6 638.9 410.4C641.5 413.6 644 416.8 646.2 420.2C662.7 444.6 668.4 468.8 671.4 494.1C673.8 514 674.3 535.5 670.5 559.1C668.4 571.9 665 585.1 661.4 598.3C654 625.5 645.1 656 658.4 682.3C673.6 712.4 709.8 723.8 743 726.3C747.6 726.7 752.3 726.9 756.8 727C794.2 727.7 830.1 721.6 865.6 721.7C874.5 721.7 883.4 722.1 892.3 722.9C941.2 727.4 988.5 745.3 1023.7 773.4C1058.7 801.4 1079.6 839.1 1086.5 868.5" stroke="#038B92" stroke-miterlimit="10"/>
<path d="M167.9 -29.9C202.9 -41.7 241.9 -38.8 274.1 -23.2C293.5 -13.9 310.4 -0.0999889 323.3 16.5C331.9 27.5 338.8 39.7 343.6 52.5C355 83.2 355 117.1 363.5 152.6C365.6 161.2 368.1 169.6 371 177.7C380.8 205.4 394.7 229.6 408.9 248C427.2 271.8 446.2 287.7 470.6 302.9C476 306.2 481.6 309.5 487.7 312.9C509.5 324.9 535.4 335.2 562.2 348.8C592.2 364.1 623.1 385.5 641.7 410.3C644.2 413.6 646.5 417 648.6 420.5C663.8 446 667.2 470.9 668.2 496.6C669 516.7 668 538.4 663.1 562C660.4 574.8 656.5 588 652.4 601.1C644 628.2 634.2 658.9 647.5 685.6C662.5 715.5 698.5 726.6 731.4 729.4C736 729.8 740.6 730.1 745.1 730.2C782.2 731.4 817.9 726.6 853 727.9C861.8 728.2 870.6 728.9 879.4 730.1C927.6 736.2 973.8 756 1006.8 785.7C1039.7 815.3 1057.1 854.4 1059.9 883.1" stroke="#03959B" stroke-miterlimit="10"/>
<path d="M162.8 -27.8C198.2 -39.4 237.6 -35.7 269.6 -19.2C289 -9.29998 305.5 5.3 317.9 22.4C326.2 33.8 332.6 46.5 336.8 59.6C346.9 91.1 345.1 125.4 353.4 161.3C355.4 170 358.1 178.5 361.1 186.6C371.5 214.4 386.9 238.2 402.6 255.6C423 278.2 444.1 292.1 470.2 305.3C475.9 308.2 481.9 311.1 488.2 314.1C511.1 324.7 537.6 334 564.8 347.3C595.3 362.2 626.3 384.2 644.1 410.1C646.5 413.6 648.7 417.1 650.6 420.7C664.6 447.3 665.6 472.9 664.6 499C663.8 519.4 661.4 541.2 655.4 564.8C652.1 577.6 647.7 590.7 643.1 603.9C633.8 630.9 623 661.9 636.3 688.8C651 718.5 686.9 729.3 719.5 732.4C724 732.8 728.6 733.2 733.1 733.4C769.9 735.1 805.4 731.6 840.1 734.1C848.8 734.7 857.5 735.8 866.1 737.2C913.5 745 958.7 766.6 989.5 797.8C1020.2 829 1034.2 869.5 1032.9 897.5" stroke="#039EA4" stroke-miterlimit="10"/>
<path d="M157.7 -25.7C193.5 -37.1 233.3 -32.7 265.2 -15.1C284.5 -4.5 300.7 10.7 312.6 28.5C320.5 40.4 326.5 53.4 330.2 66.8C339 99.2 335.3 133.9 343.6 170C345.6 178.8 348.3 187.3 351.5 195.5C362.4 223.3 379.4 246.8 396.7 263.2C419.1 284.5 442.5 296.4 470.1 307.8C476.1 310.3 482.5 312.8 489.1 315.4C513 324.6 540.2 332.9 567.9 345.9C598.9 360.5 630.1 383.1 647 410C649.3 413.6 651.3 417.3 653 421C665.8 448.6 664.4 475.1 661.3 501.5C658.9 522.2 655.1 544.1 648 567.6C644.1 580.4 639.2 593.5 634.2 606.6C623.9 633.6 612.2 664.8 625.5 692C640 721.6 675.7 732.1 708 735.4C712.5 735.9 717 736.2 721.5 736.5C758 738.7 793.3 736.5 827.6 740.2C836.2 741.1 844.8 742.5 853.3 744.2C900 753.7 944 777.1 972.7 809.9C1001.3 842.7 1011.8 884.6 1006.4 911.9" stroke="#03A8AD" stroke-miterlimit="10"/>
<path d="M152.6 -23.7C188.8 -34.8 229 -29.8 260.7 -11.2C279.9 2.57492e-05 295.8 15.9 307.2 34.4C314.8 46.7 320.3 60.1 323.5 73.9C331 107.1 325.5 142.2 333.6 178.7C335.6 187.6 338.4 196.2 341.7 204.3C353.2 232.2 371.6 255.2 390.6 270.7C415.1 290.8 440.6 300.6 469.9 310.2C476.3 312.3 482.9 314.4 489.8 316.5C514.7 324.3 542.7 331.6 570.7 344.3C602.2 358.5 633.6 381.8 649.6 409.7C651.7 413.4 653.6 417.3 655.2 421.2C666.8 449.9 663.1 477.1 657.9 503.9C653.9 524.8 648.6 546.9 640.4 570.4C635.9 583.3 630.5 596.3 625 609.4C613.7 636.3 601.1 667.7 614.4 695.2C628.6 724.6 664.2 734.8 696.2 738.4C700.7 738.9 705.1 739.3 709.6 739.7C745.8 742.5 780.9 741.4 814.8 746.4C823.3 747.6 831.8 749.3 840.2 751.4C886.2 762.6 929.1 787.7 955.6 822.2C982 856.6 989.1 899.9 979.7 926.5" stroke="#03B2B6" stroke-miterlimit="10"/>
<path d="M147.6 -21.6C184.1 -32.5 224.7 -26.8 256.4 -7.10005C275.5 4.69995 291.1 21.3 302 40.5C309.2 53.2 314.3 67 316.9 81.1C323.1 115.1 315.7 150.7 323.7 187.5C325.6 196.5 328.5 205.1 332 213.3C344 241.2 364 263.9 384.6 278.4C411.2 297.2 438.9 305.1 469.7 312.8C476.4 314.5 483.4 316.2 490.6 317.9C516.5 324.3 545.2 330.6 573.7 342.9C605.7 356.7 637.3 380.7 652.4 409.6C654.4 413.5 656.2 417.4 657.6 421.5C668 451.2 661.9 479.2 654.6 506.4C649 527.6 642.3 549.9 633 573.3C627.9 586.2 622 599.2 616 612.2C603.8 639 590.2 670.7 603.5 698.5C617.5 727.7 652.9 737.7 684.6 741.5C689 742 693.4 742.5 697.8 742.9C733.7 746.2 768.6 746.4 802.1 752.6C810.5 754.2 818.9 756.1 827.1 758.5C872.4 771.4 914.2 798.3 938.5 834.4C962.8 870.4 966.5 915.1 952.9 941" stroke="#04BBBF" stroke-miterlimit="10"/>
<path d="M142.5 -19.5C179.4 -30.2 220.4 -23.7 251.9 -3.09998C270.9 9.30002 286.2 26.7 296.6 46.4C303.5 59.6 308.1 73.8 310.2 88.2C315.1 123 305.9 159 313.7 196.2C315.6 205.3 318.5 213.9 322.2 222.1C334.8 250.1 356.3 272.4 378.5 285.9C407.2 303.5 437 309.3 469.4 315.1C476.5 316.4 483.7 317.7 491.2 319C518.2 324 547.5 329.3 576.4 341.3C609 354.8 640.7 379.4 654.9 409.3C656.8 413.3 658.4 417.4 659.7 421.6C668.9 452.4 660.4 481.1 651.1 508.7C643.9 530.2 635.7 552.6 625.4 576C619.8 589.1 613.4 602.1 606.9 615.1C593.7 641.8 579.2 673.8 592.5 701.8C606.3 730.9 641.5 740.5 672.9 744.6C677.3 745.2 681.7 745.7 686 746.2C721.5 750 756.2 751.5 789.4 758.9C797.7 760.8 806 763 814.1 765.7C858.7 780.3 899.3 809 921.5 846.6C943.6 884.2 943.9 930.3 926.2 955.5" stroke="#04C5C8" stroke-miterlimit="10"/>
<path d="M137.4 -17.4C174.7 -27.9 216.1 -20.7 247.5 0.999969C266.4 14 281.4 32.1 291.3 52.5C297.8 66.1 302.1 80.7 303.6 95.5C307.2 131.1 296.1 167.6 303.9 205.1C305.8 214.3 308.8 223 312.6 231.2C325.7 259.2 348.8 281.1 372.6 293.7C403.3 310 435.4 313.9 469.4 317.8C476.8 318.7 484.4 319.5 492.2 320.5C520.2 324.1 550.2 328.4 579.6 340.1C612.7 353.2 644.6 378.4 657.9 409.4C659.7 413.5 661.1 417.8 662.2 422.1C670.2 454 659.3 483.4 647.9 511.4C639.1 533.2 629.5 555.7 618.1 579.1C611.8 592 604.9 604.9 598 617.9C583.8 644.5 568.4 676.7 581.7 705.1C595.2 734 630.3 743.4 661.4 747.7C665.7 748.3 670.1 748.9 674.4 749.4C709.6 753.7 744.1 756.4 776.9 765.1C785.1 767.3 793.3 769.8 801.3 772.8C845.2 789.1 884.7 819.6 904.8 858.8C924.8 898 921.6 945.4 899.8 970" stroke="#04CFD2" stroke-miterlimit="10"/>
<path d="M132.4 -15.3C170.1 -25.6 211.9 -17.7 243.1 5.00002C261.9 18.6 276.6 37.4 285.9 58.5C292.1 72.5 295.9 87.5 296.9 102.6C299.2 139.1 286.3 176 293.9 213.8C295.8 223.1 298.8 231.8 302.8 240.1C316.5 268.2 341.1 289.7 366.5 301.3C399.3 316.4 433.5 318.3 469.1 320.3C476.8 320.8 484.8 321.2 492.8 321.8C521.8 324 552.5 327.3 582.4 338.6C616 351.3 648.1 377.2 660.4 409.3C662.1 413.6 663.4 418 664.3 422.5C671.1 455.4 657.8 485.7 644.4 514.1C634 536.2 622.9 558.8 610.4 582.1C603.5 595 596.1 607.9 588.7 620.8C573.5 647.4 557.2 679.8 570.4 708.4C583.7 737.1 618.6 746.2 649.4 750.9C653.7 751.5 658 752.2 662.3 752.8C697.2 757.6 731.5 761.6 764 771.5C772.1 774 780.2 776.9 788.1 780.2C831.3 798.2 869.7 830.4 887.6 871.3C905.4 912.1 898.8 960.9 872.9 984.8" stroke="#04D8DB" stroke-miterlimit="10"/>
<path d="M127.3 -13.2C165.4 -23.3 207.6 -14.7 238.6 9.10001C257.3 23.3 271.7 42.8 280.5 64.5C286.4 78.9 289.7 94.4 290.1 109.8C291.1 147.1 276.3 184.4 283.8 222.6C285.6 231.9 288.8 240.8 292.9 249C307.1 277.2 333.3 298.3 360.3 309C395.2 322.8 431.6 322.7 468.8 322.9C476.9 322.9 485.1 323 493.5 323.2C523.6 324 554.9 326.3 585.2 337.3C619.3 349.7 651.5 376.2 663 409.3C664.5 413.7 665.7 418.2 666.5 422.9C672.1 456.9 656.5 487.9 641 516.7C629 539.1 616.5 561.8 602.9 585.1C595.4 597.9 587.5 610.9 579.6 623.8C563.5 650.3 546.3 682.9 559.4 711.9C572.5 740.4 607.3 749.3 637.7 754.2C642 754.9 646.2 755.6 650.5 756.2C685.1 761.5 719.2 766.8 751.3 777.9C759.4 780.7 767.3 783.9 775 787.5C817.5 807.2 854.8 841.2 870.5 883.6C886.2 926 876.2 976.2 846.2 999.4" stroke="#04E2E4" stroke-miterlimit="10"/>
<path d="M122.2 -11.2C160.7 -21.1 203.3 -11.7 234.2 13C252.8 27.9 266.9 48.1 275.2 70.4C280.7 85.3 283.6 101.1 283.5 116.9C283.2 155 266.6 192.8 273.9 231.3C275.7 240.7 278.9 249.6 283.3 257.9C298.1 286.1 325.8 306.9 354.3 316.6C391.2 329.2 429.9 327.1 468.6 325.3C477 324.9 485.6 324.6 494.2 324.4C525.3 323.8 557.4 325.1 588.1 335.8C622.7 347.8 655.1 375 665.7 409.1C667.1 413.6 668.1 418.3 668.7 423.1C673.1 458.2 655.1 489.9 637.5 519.1C623.9 541.7 609.9 564.6 595.3 587.9C587.2 600.7 578.8 613.6 570.5 626.5C553.4 652.9 535.3 685.8 548.4 715C561.3 743.4 595.9 751.9 626 757.1C630.2 757.8 634.4 758.5 638.6 759.3C672.9 765.2 706.8 771.6 738.5 784C746.5 787.1 754.3 790.6 761.9 794.5C803.7 815.9 839.8 851.7 853.4 895.7C866.9 939.7 853.5 991.3 819.4 1013.8" stroke="#05ECED" stroke-miterlimit="10"/>
<path d="M117.1 -9.1C156 -18.8 198.9 -8.69999 229.7 17.1C248.2 32.6 262 53.5 269.8 76.5C275 91.8 277.4 108 276.8 124.1C275.2 163 256.7 201.2 264 240.1C265.8 249.6 269.1 258.6 273.6 266.8C288.9 295.1 318.1 315.4 348.3 324.2C387.3 335.5 428.1 331.4 468.4 327.8C477.2 327 486 326.3 495 325.7C527.1 323.7 559.9 324 591 334.4C626.1 346 658.7 373.8 668.4 409C669.7 413.7 670.6 418.5 671 423.4C674.2 459.5 653.8 492.1 634.2 521.6C619 544.5 603.6 567.5 587.8 590.8C579.1 603.6 570.3 616.5 561.4 629.4C543.3 655.7 524.3 688.8 537.4 718.4C550 746.6 584.5 754.9 614.3 760.3C618.5 761.1 622.7 761.8 626.8 762.6C660.8 769 694.5 776.7 725.8 790.3C733.7 793.7 741.4 797.5 748.9 801.7C790 824.8 825 862.3 836.4 908C847.8 953.7 830.9 1006.6 792.7 1028.4" stroke="#05F5F6" stroke-miterlimit="10"/>
<path d="M112.1 -7C151.3 -16.5 194.7 -5.69999 225.4 21.1C256.1 47.9 273.2 90.1 270.2 131.2C267.3 170.9 246.9 209.6 254.1 248.8C261.9 291.3 301.2 321.7 342.3 331.8C383.4 341.9 426.4 335.8 468.3 330.3C510.2 324.8 553.6 320.2 594 332.9C634.4 345.6 671.1 380.5 673.4 423.6C675.4 460.8 652.6 494.1 630.9 524C604.8 560 578.6 596.1 552.5 632.1C533.4 658.4 513.5 691.7 526.6 721.5C538.9 749.5 573.3 757.5 602.8 763.2C649.1 772.1 695.7 784 736 808.7C776.4 833.5 810.3 872.8 819.5 920.1C828.7 967.4 808.4 1021.7 766.1 1042.8" stroke="#05FFFF" stroke-miterlimit="10"/>
<path d="M135.1 -9.90001C172.5 -15 211.4 -0.800018 237.3 26.4C263.2 53.7 275.4 93.6 269.7 134.5C264.3 173.4 243.4 212.5 249.6 252.3C256.4 295.3 294.7 327.4 335.9 338.3C376 348.9 418.3 342.9 459.5 338.4C502.3 333.7 546.6 330.5 587.9 343.5C628 356.2 664.7 389.9 667.7 432.6C670.3 469.4 648.2 502.8 626.7 532.6C601 568.2 575.1 603.7 549.4 639.3C530.5 665.6 511 699 524.1 728.8C536.5 756.9 570.8 765.3 600.4 771.1C646 779.9 691.9 791.4 731.8 815.8C771.7 840.2 805.1 879.2 814.1 925.9C823.1 972.6 803.3 1026.2 761.9 1047.6" stroke="#05F8F8" stroke-miterlimit="10"/>
<path d="M158 -12.9C193.5 -13.6 227.9 3.89996 249 31.6C270.1 59.3 277.4 97 269 137.6C261.1 175.7 239.7 215.1 245 255.6C250.9 299.1 288.1 332.9 329.5 344.6C368.7 355.7 410.2 349.9 450.7 346.3C494.4 342.4 539.5 340.6 581.8 353.9C621.6 366.4 658.4 399.2 662 441.4C665.1 477.8 643.7 511.3 622.5 541C597.3 576.2 571.5 611.1 546.3 646.3C527.5 672.7 508.5 706.2 521.5 736C533.9 764.3 568.1 773.1 597.8 779C642.7 787.8 688 798.9 727.3 822.9C766.8 847 799.5 885.6 808.4 931.8C817.3 978 797.9 1030.7 757.4 1052.4" stroke="#05F1F2" stroke-miterlimit="10"/>
<path d="M181 -15.9C214.6 -12.3 244.6 8.59998 260.9 36.7C277.3 64.8 279.7 100.2 268.5 140.7C258.2 178 236 217.8 240.5 258.9C245.3 303 281.5 338.4 323.1 351C361.3 362.6 402.2 357.1 441.9 354.4C486.5 351.4 532.4 350.9 575.7 364.4C615.2 376.8 652.1 408.5 656.3 450.2C660 486.2 639.2 519.8 618.3 549.4C593.6 584.3 568 618.5 543.2 653.3C524.5 679.7 506 713.3 519 743.1C531.4 771.5 565.6 780.7 595.4 786.8C639.6 795.6 684.3 806.3 723 829.8C762 853.5 794.2 891.8 802.9 937.4C811.6 983 792.7 1035 753.1 1056.9" stroke="#05E9EB" stroke-miterlimit="10"/>
<path d="M204 -18.8C235.7 -10.8 261.2 13.4 272.8 42C284.4 70.5 282 103.6 268 143.9C255.4 180.3 232.5 220.5 236.1 262.4C239.9 307 275.1 344 316.9 357.5C354.2 369.5 394.3 364.4 433.4 362.5C478.9 360.3 525.6 361.2 569.9 375C609.1 387.3 646 418 650.9 459.2C655.2 494.8 635.1 528.5 614.5 558C590.3 592.5 564.8 626.1 540.5 660.5C521.9 687 503.9 720.6 516.9 750.4C529.4 778.9 563.4 788.6 593.3 794.7C636.8 803.6 680.9 813.8 719 836.9C757.5 860.3 789.2 898.3 797.7 943.2C806.2 988.1 787.8 1039.4 749.1 1061.6" stroke="#04E2E4" stroke-miterlimit="10"/>
<path d="M227 -21.8C256.9 -9.39999 277.8 18 284.7 47.2C291.5 76 284.4 106.9 267.5 147.1C252.6 182.7 228.9 223.3 231.6 265.8C234.5 310.9 268.6 349.5 310.5 363.9C346.9 376.3 386.3 369.2 424.6 370.5C471 372.1 518.6 371.4 563.8 385.5C602.7 397.7 639.7 427.4 645.2 468C650 503.2 630.6 537 610.3 566.4C586.6 600.5 561.2 633.4 537.4 667.5C518.9 694 501.4 727.8 514.4 757.6C526.9 786.3 560.9 796.4 590.9 802.6C633.7 811.5 677.2 821.3 714.7 844C752.7 867 783.8 904.7 792.3 949.1C800.7 993.5 782.7 1043.9 744.9 1066.4" stroke="#04DBDE" stroke-miterlimit="10"/>
<path d="M250 -24.7C278 -7.89995 294.5 22.7 296.5 52.4C298.5 81.5 286.7 110.2 267 150.2C249.9 184.9 225.3 225.9 227.1 269.1C229 314.7 262.1 354.9 304.2 370.2C339.6 383 378.4 376.1 415.9 378.5C463.1 381.5 511.6 381.6 557.8 396C596.4 408 633.5 436.7 639.6 476.9C645 511.8 626.2 545.6 606.2 575C583 608.7 557.7 641 534.5 674.7C516.1 701.3 499.1 735.1 512 764.9C524.5 793.7 558.4 804.2 588.6 810.6C630.7 819.5 673.6 828.8 710.6 851.2C748.2 873.9 778.7 911.2 787 955C795.3 998.8 777.7 1048.5 740.9 1071.2" stroke="#04D4D7" stroke-miterlimit="10"/>
<path d="M272.9 -27.7C299 -6.59995 311.1 27.3 308.3 57.6C305.6 87 289.1 113.5 266.4 153.4C247.1 187.3 221.7 228.7 222.6 272.6C223.5 318.7 255.5 360.5 297.9 376.7C332.4 389.9 370.6 383.3 407.2 386.6C455.3 390.9 504.6 392 551.8 406.5C590.1 418.4 627.2 446.1 634 485.8C640 520.3 621.9 554.3 602.1 583.5C579.4 616.8 554.3 648.5 531.5 681.8C513.2 708.4 496.7 742.3 509.6 772.1C522.1 801 556 812 586.2 818.4C627.6 827.3 669.8 836.2 706.3 858.2C743.4 880.5 773.4 917.5 781.5 960.8C789.6 1004.1 772.5 1052.9 736.6 1075.9" stroke="#04CDD0" stroke-miterlimit="10"/>
<path d="M295.9 -30.6C320.1 -5.09998 327.8 32 320.2 62.9C312.9 92.6 291.7 116.9 265.9 156.7C244.5 189.8 218.2 231.5 218.1 276.1C218.1 322.7 249 366.1 291.5 383.3C325.1 396.9 362.6 390.8 398.4 394.8C447.3 400.3 497.6 402.4 545.7 417.2C583.7 429 620.9 455.6 628.3 494.8C634.8 528.9 617.5 563 597.9 592.1C575.7 625.1 550.7 656.1 528.4 689C510.3 715.7 494.2 749.7 507.1 779.4C519.7 808.5 553.4 819.8 583.8 826.4C624.5 835.3 666.1 843.8 702 865.3C738.6 887.3 768.1 923.9 776 966.6C783.9 1009.3 767.3 1057.4 732.3 1080.7" stroke="#04C5CA" stroke-miterlimit="10"/>
<path d="M318.9 -33.6C341.2 -3.69998 344.6 36.5 332.1 68.1C320.2 98.1 294.3 120.2 265.4 159.8C241.9 192 214.6 234.2 213.7 279.4C212.7 326.5 242.6 371.4 285.3 389.6C317.9 403.5 354.6 401 389.9 402.7C440.1 405.2 490.8 412.5 539.9 427.6C577.6 439.3 614.9 464.9 622.9 503.6C630 537.3 613.3 571.5 594 600.5C572.3 633.1 547.5 663.5 525.6 696C507.6 722.7 492 756.8 504.8 786.6C517.4 815.8 551.1 827.5 581.5 834.3C621.5 843.2 662.5 851.3 697.8 872.4C734 894 762.8 930.3 770.6 972.5C778.4 1014.6 762.2 1061.9 728.1 1085.5" stroke="#04BEC3" stroke-miterlimit="10"/>
<path d="M341.9 -36.5C362.4 -2.3 361.5 41.3 344 73.3C327.5 103.6 296.9 123.6 264.9 163C239.3 194.5 211.1 236.9 209.2 282.8C207.3 330.4 236.1 376.9 278.9 396C310.6 410.2 346.6 408.4 381.1 410.8C432.2 414.4 483.7 422.8 533.8 438.1C571.2 449.7 608.5 474.2 617.2 512.4C624.9 545.7 608.8 580 589.8 608.9C568.6 641.1 543.9 670.9 522.5 703C504.6 729.8 489.5 763.9 502.3 793.7C514.9 823 548.5 835.2 579.1 842C618.4 850.8 658.8 858.5 693.5 879.3C729.2 900.6 757.5 936.5 765.1 978.1C772.7 1019.7 757 1066.2 723.8 1090" stroke="#04B7BC" stroke-miterlimit="10"/>
<path d="M364.9 -39.5C383.5 -0.900002 378.3 45.9 355.8 78.5C334.7 109.1 299.5 127 264.3 166.1C236.7 196.8 207.4 239.6 204.6 286.2C201.7 334.4 229.5 382.2 272.5 402.4C303.3 416.9 338.6 415.8 372.3 418.8C424.4 423.4 476.7 433 527.7 448.6C564.8 460 602.2 483.6 611.5 521.3C619.7 554.2 604.4 588.6 585.6 617.4C564.9 649.2 540.4 678.5 519.5 710.1C501.7 737 487.1 771.2 499.9 800.9C512.5 830.3 546.1 842.9 576.7 849.9C615.3 858.7 655.1 866 689.3 886.4C724.5 907.3 752.3 942.9 759.7 983.9C767.1 1024.9 751.9 1070.6 719.6 1094.7" stroke="#03B0B6" stroke-miterlimit="10"/>
<path d="M387.8 -42.4C404.5 0.599976 395 50.7 367.6 83.8C341.9 114.8 302.1 130.6 263.7 169.4C234 199.4 203.8 242.4 200.1 289.7C196.3 338.4 223 387.7 266.1 409C296 423.8 330.5 423.4 363.5 427C416.5 432.8 469.6 443.4 521.6 459.3C558.4 470.6 595.9 493.1 605.8 530.3C614.6 562.8 599.9 597.3 581.4 626C561.1 657.4 536.9 686.1 516.4 717.3C498.8 744.2 484.6 778.5 497.4 808.2C510.1 837.8 543.6 850.7 574.3 857.9C612.2 866.7 651.4 873.6 685 893.5C719.8 914.1 747 949.3 754.2 989.8C761.5 1030.2 746.7 1075.1 715.3 1099.5" stroke="#03A9AF" stroke-miterlimit="10"/>
<path d="M410.8 -45.4C425.6 1.89997 411.9 55.4 379.5 89C349.2 120.4 304.8 134.1 263.2 172.5C231.5 201.8 200.3 245.1 195.6 293C190.8 342.2 216.5 393 259.8 415.3C288.9 430.3 322.6 430.8 354.9 435C408.8 441.9 462.7 453.6 515.7 469.7C552.2 480.9 589.7 502.4 600.3 539.1C609.7 571.2 595.6 605.9 577.4 634.4C557.6 665.4 533.5 693.5 513.5 724.3C496 751.3 482.3 785.6 495 815.4C507.7 845.1 541.1 858.5 572 865.7C609.2 874.5 647.7 881 680.8 900.5C715.1 920.8 741.7 955.6 748.9 995.5C756 1035.4 741.7 1079.5 711.2 1104.1" stroke="#03A2A8" stroke-miterlimit="10"/>
<path d="M433.8 -48.4C446.8 3.29998 428.7 60.1 391.4 94.1C356.5 125.9 307.5 137.5 262.7 175.6C229 204.2 196.7 247.7 191.2 296.4C185.5 346.1 210.2 398.3 253.5 421.7C281.7 437 314.7 438.3 346.2 443C401.1 451.2 455.7 463.8 509.7 480.2C546 491.3 583.5 511.7 594.7 548C604.6 579.7 591.3 614.5 573.3 642.9C554 673.5 530.1 701 510.5 731.4C493.1 758.5 479.9 792.9 492.6 822.6C505.3 852.4 538.7 866.2 569.6 873.6C606.1 882.3 644 888.4 676.5 907.6C710.3 927.5 736.4 962.1 743.4 1001.4C750.4 1040.7 736.5 1084 706.9 1108.9" stroke="#039AA2" stroke-miterlimit="10"/>
<path d="M456.8 -51.3C467.9 4.80001 445.5 64.9 403.3 99.4C363.8 131.6 310.2 141.2 262.2 178.8C226.5 206.8 193.2 250.5 186.7 299.8C180.1 350 203.8 403.5 247.2 428.1C274.5 443.6 306.7 445.8 337.5 451C393.3 460.4 448.8 474 503.7 490.7C539.7 501.6 577.3 521.1 589.1 556.8C599.6 588.1 586.9 623 569.2 651.4C550.4 681.6 526.6 708.5 507.5 738.5C490.2 765.6 477.5 800.1 490.2 829.8C502.9 859.8 536.2 873.9 567.3 881.5C603.1 890.2 640.4 895.9 672.3 914.7C705.7 934.3 731.2 968.5 738 1007.2C744.8 1045.9 731.4 1088.5 702.7 1113.7" stroke="#03939B" stroke-miterlimit="10"/>
<path d="M479.8 -54.3C489 6.20001 462.3 69.6 415.1 104.6C371 137.3 312.8 144.8 261.6 182C223.9 209.4 189.6 253.3 182.2 303.2C174.6 353.9 197.4 408.8 240.8 434.6C267.3 450.3 298.7 453.5 328.7 459.1C385.4 469.8 441.7 484.4 497.7 501.2C533.4 512 571 530.5 583.5 565.7C594.6 596.6 582.5 631.6 565.1 659.9C546.8 689.7 523.2 716 504.6 745.6C487.5 772.8 475.2 807.3 487.8 837C500.6 867.1 533.8 881.6 564.9 889.4C600 898.1 636.7 903.4 668 921.7C700.9 940.9 725.9 974.8 732.5 1012.9C739.1 1051.1 726.2 1092.8 698.4 1118.3" stroke="#038C94" stroke-miterlimit="10"/>
<path d="M502.8 -57.2C510.1 7.59999 479.1 74.5 427 109.8C378.3 142.9 315.6 148.4 261.1 185.1C221.4 211.9 186.1 255.9 177.7 306.5C169.2 357.7 191 413.9 234.5 440.9C260.1 456.8 290.7 460.9 320 467.1C377.6 479.2 434.7 494.6 491.7 511.7C527.1 522.4 564.8 539.8 577.9 574.5C589.5 605 578.1 640.1 561 668.3C543.1 697.7 519.8 723.4 501.6 752.6C484.6 779.9 472.8 814.5 485.4 844.2C498.2 874.4 531.3 889.4 562.6 897.2C597 905.8 633.1 910.8 663.9 928.7C696.3 947.6 720.7 981.1 727.2 1018.7C733.7 1056.3 721.2 1097.3 694.3 1123" stroke="#03858E" stroke-miterlimit="10"/>
<path d="M525.7 -60.2C531.1 8.99998 495.8 79.2 438.8 115C385.5 148.5 318.2 152.1 260.5 188.3C218.8 214.5 182.5 258.7 173.1 310C163.8 361.8 184.5 419.2 228 447.4C252.8 463.5 282.6 468.6 311.2 475.2C369.6 488.7 427.7 504.9 485.6 522.3C520.7 532.9 558.5 549.3 572.2 583.5C584.4 613.7 573.6 648.8 556.8 676.9C539.4 705.9 516.3 731.1 498.5 759.8C481.7 787.2 470.4 821.8 482.9 851.5C495.7 881.9 528.8 897.2 560.1 905.2C593.8 913.8 629.3 918.4 659.5 935.9C691.5 954.4 715.3 987.6 721.6 1024.6C727.9 1061.6 715.9 1101.8 690 1127.8" stroke="#027E87" stroke-miterlimit="10"/>
<path d="M548.7 -63.1C552.3 10.5 512.7 84.1 450.7 120.3C392.8 154.3 320.9 155.9 260 191.5C216.3 217.1 179 261.4 168.7 313.4C158.4 365.7 178.3 424.4 221.8 453.8C245.8 470 274.7 476.2 302.6 483.2C361.9 498.2 420.8 515.1 479.7 532.7C514.5 543.2 552.3 558.5 566.7 592.3C579.4 622.1 569.4 657.3 552.8 685.3C535.9 713.9 513 738.5 495.6 766.8C478.9 794.2 468.1 828.9 480.6 858.6C493.4 889.1 526.5 904.7 557.9 913C590.9 921.5 625.7 925.7 655.4 942.9C686.9 961.1 710.2 993.9 716.3 1030.4C722.5 1066.9 710.9 1106.3 685.9 1132.5" stroke="#027680" stroke-miterlimit="10"/>
<path d="M571.7 -66.1C573.4 11.8 529.4 88.8 462.5 125.5C400 159.9 323.5 159.6 259.4 194.7C213.6 219.8 175.4 264.2 164.1 316.8C152.9 369.6 171.9 429.5 215.3 460.2C238.5 476.6 266.5 483.8 293.7 491.3C353.8 507.9 413.6 525.4 473.5 543.3C508 553.6 545.9 568 560.9 601.2C574.2 630.6 564.8 665.9 548.6 693.8C532.1 722 509.4 746 492.5 773.9C476 801.4 465.6 836.2 478 865.8C490.9 896.4 523.8 912.5 555.4 920.8C587.7 929.3 621.9 933.1 651 949.8C682 967.6 704.7 1000.1 710.7 1036C716.7 1071.9 705.6 1110.5 681.5 1137" stroke="#026F7A" stroke-miterlimit="10"/>
<path d="M594.7 -69C594.5 13.3 546.2 93.6 474.4 130.7C407.2 165.5 326.2 163.3 258.9 197.8C211.1 222.4 171.8 266.8 159.7 320.2C147.5 373.5 165.7 434.6 209.1 466.7C231.5 483.3 258.6 491.5 285.1 499.4C345.9 517.6 406.7 535.7 467.6 553.9C501.8 564.1 539.8 577.4 555.4 610.2C569.3 639.2 560.5 674.6 544.6 702.4C528.6 730.2 506.1 753.6 489.7 781.2C473.3 808.8 463.4 843.6 475.8 873.3C488.7 904 521.6 920.5 553.2 929C584.8 937.5 618.4 940.9 646.9 957.2C677.5 974.7 699.6 1006.8 705.5 1042.2C711.3 1077.5 700.7 1115.3 677.5 1142.1" stroke="#026873" stroke-miterlimit="10"/>
</g>
<mask id="mask5_3_601" style="mask-type:luminance" maskUnits="userSpaceOnUse" x="0" y="0" width="1200" height="800">
<path d="M1200 0H0V800H1200V0Z" fill="white"/>
</mask>
<g mask="url(#mask5_3_601)">
<path d="M221 688C222.105 688 223 687.105 223 686C223 684.895 222.105 684 221 684C219.895 684 219 684.895 219 686C219 687.105 219.895 688 221 688Z" fill="#05FFFF"/>
<path d="M221 665C222.105 665 223 664.105 223 663C223 661.895 222.105 661 221 661C219.895 661 219 661.895 219 663C219 664.105 219.895 665 221 665Z" fill="#05FFFF"/>
<path d="M221 642C222.105 642 223 641.105 223 640C223 638.895 222.105 638 221 638C219.895 638 219 638.895 219 640C219 641.105 219.895 642 221 642Z" fill="#05FFFF"/>
<path d="M221 619C222.105 619 223 618.105 223 617C223 615.895 222.105 615 221 615C219.895 615 219 615.895 219 617C219 618.105 219.895 619 221 619Z" fill="#05FFFF"/>
<path d="M221 596C222.105 596 223 595.105 223 594C223 592.895 222.105 592 221 592C219.895 592 219 592.895 219 594C219 595.105 219.895 596 221 596Z" fill="#05FFFF"/>
<path d="M246 688C247.105 688 248 687.105 248 686C248 684.895 247.105 684 246 684C244.895 684 244 684.895 244 686C244 687.105 244.895 688 246 688Z" fill="#05FFFF"/>
<path d="M246 665C247.105 665 248 664.105 248 663C248 661.895 247.105 661 246 661C244.895 661 244 661.895 244 663C244 664.105 244.895 665 246 665Z" fill="#05FFFF"/>
<path d="M246 642C247.105 642 248 641.105 248 640C248 638.895 247.105 638 246 638C244.895 638 244 638.895 244 640C244 641.105 244.895 642 246 642Z" fill="#05FFFF"/>
<path d="M246 619C247.105 619 248 618.105 248 617C248 615.895 247.105 615 246 615C244.895 615 244 615.895 244 617C244 618.105 244.895 619 246 619Z" fill="#05FFFF"/>
<path d="M246 596C247.105 596 248 595.105 248 594C248 592.895 247.105 592 246 592C244.895 592 244 592.895 244 594C244 595.105 244.895 596 246 596Z" fill="#05FFFF"/>
<path d="M271 688C272.105 688 273 687.105 273 686C273 684.895 272.105 684 271 684C269.895 684 269 684.895 269 686C269 687.105 269.895 688 271 688Z" fill="#05FFFF"/>
<path d="M271 665C272.105 665 273 664.105 273 663C273 661.895 272.105 661 271 661C269.895 661 269 661.895 269 663C269 664.105 269.895 665 271 665Z" fill="#05FFFF"/>
<path d="M271 642C272.105 642 273 641.105 273 640C273 638.895 272.105 638 271 638C269.895 638 269 638.895 269 640C269 641.105 269.895 642 271 642Z" fill="#05FFFF"/>
<path d="M271 619C272.105 619 273 618.105 273 617C273 615.895 272.105 615 271 615C269.895 615 269 615.895 269 617C269 618.105 269.895 619 271 619Z" fill="#05FFFF"/>
<path d="M271 596C272.105 596 273 595.105 273 594C273 592.895 272.105 592 271 592C269.895 592 269 592.895 269 594C269 595.105 269.895 596 271 596Z" fill="#05FFFF"/>
<path d="M296 688C297.105 688 298 687.105 298 686C298 684.895 297.105 684 296 684C294.895 684 294 684.895 294 686C294 687.105 294.895 688 296 688Z" fill="#05FFFF"/>
<path d="M296 665C297.105 665 298 664.105 298 663C298 661.895 297.105 661 296 661C294.895 661 294 661.895 294 663C294 664.105 294.895 665 296 665Z" fill="#05FFFF"/>
<path d="M296 642C297.105 642 298 641.105 298 640C298 638.895 297.105 638 296 638C294.895 638 294 638.895 294 640C294 641.105 294.895 642 296 642Z" fill="#05FFFF"/>
<path d="M296 619C297.105 619 298 618.105 298 617C298 615.895 297.105 615 296 615C294.895 615 294 615.895 294 617C294 618.105 294.895 619 296 619Z" fill="#05FFFF"/>
<path d="M296 596C297.105 596 298 595.105 298 594C298 592.895 297.105 592 296 592C294.895 592 294 592.895 294 594C294 595.105 294.895 596 296 596Z" fill="#05FFFF"/>
<path d="M321 688C322.105 688 323 687.105 323 686C323 684.895 322.105 684 321 684C319.895 684 319 684.895 319 686C319 687.105 319.895 688 321 688Z" fill="#05FFFF"/>
<path d="M321 665C322.105 665 323 664.105 323 663C323 661.895 322.105 661 321 661C319.895 661 319 661.895 319 663C319 664.105 319.895 665 321 665Z" fill="#05FFFF"/>
<path d="M321 642C322.105 642 323 641.105 323 640C323 638.895 322.105 638 321 638C319.895 638 319 638.895 319 640C319 641.105 319.895 642 321 642Z" fill="#05FFFF"/>
<path d="M321 619C322.105 619 323 618.105 323 617C323 615.895 322.105 615 321 615C319.895 615 319 615.895 319 617C319 618.105 319.895 619 321 619Z" fill="#05FFFF"/>
<path d="M321 596C322.105 596 323 595.105 323 594C323 592.895 322.105 592 321 592C319.895 592 319 592.895 319 594C319 595.105 319.895 596 321 596Z" fill="#05FFFF"/>
<path d="M346 688C347.105 688 348 687.105 348 686C348 684.895 347.105 684 346 684C344.895 684 344 684.895 344 686C344 687.105 344.895 688 346 688Z" fill="#05FFFF"/>
<path d="M346 665C347.105 665 348 664.105 348 663C348 661.895 347.105 661 346 661C344.895 661 344 661.895 344 663C344 664.105 344.895 665 346 665Z" fill="#05FFFF"/>
<path d="M346 642C347.105 642 348 641.105 348 640C348 638.895 347.105 638 346 638C344.895 638 344 638.895 344 640C344 641.105 344.895 642 346 642Z" fill="#05FFFF"/>
<path d="M346 619C347.105 619 348 618.105 348 617C348 615.895 347.105 615 346 615C344.895 615 344 615.895 344 617C344 618.105 344.895 619 346 619Z" fill="#05FFFF"/>
<path d="M346 596C347.105 596 348 595.105 348 594C348 592.895 347.105 592 346 592C344.895 592 344 592.895 344 594C344 595.105 344.895 596 346 596Z" fill="#05FFFF"/>
<path d="M371 688C372.105 688 373 687.105 373 686C373 684.895 372.105 684 371 684C369.895 684 369 684.895 369 686C369 687.105 369.895 688 371 688Z" fill="#05FFFF"/>
<path d="M371 665C372.105 665 373 664.105 373 663C373 661.895 372.105 661 371 661C369.895 661 369 661.895 369 663C369 664.105 369.895 665 371 665Z" fill="#05FFFF"/>
<path d="M371 642C372.105 642 373 641.105 373 640C373 638.895 372.105 638 371 638C369.895 638 369 638.895 369 640C369 641.105 369.895 642 371 642Z" fill="#05FFFF"/>
<path d="M371 619C372.105 619 373 618.105 373 617C373 615.895 372.105 615 371 615C369.895 615 369 615.895 369 617C369 618.105 369.895 619 371 619Z" fill="#05FFFF"/>
<path d="M371 596C372.105 596 373 595.105 373 594C373 592.895 372.105 592 371 592C369.895 592 369 592.895 369 594C369 595.105 369.895 596 371 596Z" fill="#05FFFF"/>
<path d="M396 688C397.105 688 398 687.105 398 686C398 684.895 397.105 684 396 684C394.895 684 394 684.895 394 686C394 687.105 394.895 688 396 688Z" fill="#05FFFF"/>
<path d="M396 665C397.105 665 398 664.105 398 663C398 661.895 397.105 661 396 661C394.895 661 394 661.895 394 663C394 664.105 394.895 665 396 665Z" fill="#05FFFF"/>
<path d="M396 642C397.105 642 398 641.105 398 640C398 638.895 397.105 638 396 638C394.895 638 394 638.895 394 640C394 641.105 394.895 642 396 642Z" fill="#05FFFF"/>
<path d="M396 619C397.105 619 398 618.105 398 617C398 615.895 397.105 615 396 615C394.895 615 394 615.895 394 617C394 618.105 394.895 619 396 619Z" fill="#05FFFF"/>
<path d="M396 596C397.105 596 398 595.105 398 594C398 592.895 397.105 592 396 592C394.895 592 394 592.895 394 594C394 595.105 394.895 596 396 596Z" fill="#05FFFF"/>
<path d="M421 688C422.105 688 423 687.105 423 686C423 684.895 422.105 684 421 684C419.895 684 419 684.895 419 686C419 687.105 419.895 688 421 688Z" fill="#05FFFF"/>
<path d="M421 665C422.105 665 423 664.105 423 663C423 661.895 422.105 661 421 661C419.895 661 419 661.895 419 663C419 664.105 419.895 665 421 665Z" fill="#05FFFF"/>
<path d="M421 642C422.105 642 423 641.105 423 640C423 638.895 422.105 638 421 638C419.895 638 419 638.895 419 640C419 641.105 419.895 642 421 642Z" fill="#05FFFF"/>
<path d="M421 619C422.105 619 423 618.105 423 617C423 615.895 422.105 615 421 615C419.895 615 419 615.895 419 617C419 618.105 419.895 619 421 619Z" fill="#05FFFF"/>
<path d="M421 596C422.105 596 423 595.105 423 594C423 592.895 422.105 592 421 592C419.895 592 419 592.895 419 594C419 595.105 419.895 596 421 596Z" fill="#05FFFF"/>
<path d="M446 688C447.105 688 448 687.105 448 686C448 684.895 447.105 684 446 684C444.895 684 444 684.895 444 686C444 687.105 444.895 688 446 688Z" fill="#05FFFF"/>
<path d="M446 665C447.105 665 448 664.105 448 663C448 661.895 447.105 661 446 661C444.895 661 444 661.895 444 663C444 664.105 444.895 665 446 665Z" fill="#05FFFF"/>
<path d="M446 642C447.105 642 448 641.105 448 640C448 638.895 447.105 638 446 638C444.895 638 444 638.895 444 640C444 641.105 444.895 642 446 642Z" fill="#05FFFF"/>
<path d="M446 619C447.105 619 448 618.105 448 617C448 615.895 447.105 615 446 615C444.895 615 444 615.895 444 617C444 618.105 444.895 619 446 619Z" fill="#05FFFF"/>
<path d="M446 596C447.105 596 448 595.105 448 594C448 592.895 447.105 592 446 592C444.895 592 444 592.895 444 594C444 595.105 444.895 596 446 596Z" fill="#05FFFF"/>
<path d="M471 688C472.105 688 473 687.105 473 686C473 684.895 472.105 684 471 684C469.895 684 469 684.895 469 686C469 687.105 469.895 688 471 688Z" fill="#05FFFF"/>
<path d="M471 665C472.105 665 473 664.105 473 663C473 661.895 472.105 661 471 661C469.895 661 469 661.895 469 663C469 664.105 469.895 665 471 665Z" fill="#05FFFF"/>
<path d="M471 642C472.105 642 473 641.105 473 640C473 638.895 472.105 638 471 638C469.895 638 469 638.895 469 640C469 641.105 469.895 642 471 642Z" fill="#05FFFF"/>
<path d="M471 619C472.105 619 473 618.105 473 617C473 615.895 472.105 615 471 615C469.895 615 469 615.895 469 617C469 618.105 469.895 619 471 619Z" fill="#05FFFF"/>
<path d="M471 596C472.105 596 473 595.105 473 594C473 592.895 472.105 592 471 592C469.895 592 469 592.895 469 594C469 595.105 469.895 596 471 596Z" fill="#05FFFF"/>
<path d="M496 688C497.105 688 498 687.105 498 686C498 684.895 497.105 684 496 684C494.895 684 494 684.895 494 686C494 687.105 494.895 688 496 688Z" fill="#05FFFF"/>
<path d="M496 665C497.105 665 498 664.105 498 663C498 661.895 497.105 661 496 661C494.895 661 494 661.895 494 663C494 664.105 494.895 665 496 665Z" fill="#05FFFF"/>
<path d="M496 642C497.105 642 498 641.105 498 640C498 638.895 497.105 638 496 638C494.895 638 494 638.895 494 640C494 641.105 494.895 642 496 642Z" fill="#05FFFF"/>
<path d="M496 619C497.105 619 498 618.105 498 617C498 615.895 497.105 615 496 615C494.895 615 494 615.895 494 617C494 618.105 494.895 619 496 619Z" fill="#05FFFF"/>
<path d="M496 596C497.105 596 498 595.105 498 594C498 592.895 497.105 592 496 592C494.895 592 494 592.895 494 594C494 595.105 494.895 596 496 596Z" fill="#05FFFF"/>
<path d="M521 688C522.105 688 523 687.105 523 686C523 684.895 522.105 684 521 684C519.895 684 519 684.895 519 686C519 687.105 519.895 688 521 688Z" fill="#05FFFF"/>
<path d="M521 665C522.105 665 523 664.105 523 663C523 661.895 522.105 661 521 661C519.895 661 519 661.895 519 663C519 664.105 519.895 665 521 665Z" fill="#05FFFF"/>
<path d="M521 642C522.105 642 523 641.105 523 640C523 638.895 522.105 638 521 638C519.895 638 519 638.895 519 640C519 641.105 519.895 642 521 642Z" fill="#05FFFF"/>
<path d="M521 619C522.105 619 523 618.105 523 617C523 615.895 522.105 615 521 615C519.895 615 519 615.895 519 617C519 618.105 519.895 619 521 619Z" fill="#05FFFF"/>
<path d="M521 596C522.105 596 523 595.105 523 594C523 592.895 522.105 592 521 592C519.895 592 519 592.895 519 594C519 595.105 519.895 596 521 596Z" fill="#05FFFF"/>
<path d="M546 688C547.105 688 548 687.105 548 686C548 684.895 547.105 684 546 684C544.895 684 544 684.895 544 686C544 687.105 544.895 688 546 688Z" fill="#05FFFF"/>
<path d="M546 665C547.105 665 548 664.105 548 663C548 661.895 547.105 661 546 661C544.895 661 544 661.895 544 663C544 664.105 544.895 665 546 665Z" fill="#05FFFF"/>
<path d="M546 642C547.105 642 548 641.105 548 640C548 638.895 547.105 638 546 638C544.895 638 544 638.895 544 640C544 641.105 544.895 642 546 642Z" fill="#05FFFF"/>
<path d="M546 619C547.105 619 548 618.105 548 617C548 615.895 547.105 615 546 615C544.895 615 544 615.895 544 617C544 618.105 544.895 619 546 619Z" fill="#05FFFF"/>
<path d="M546 596C547.105 596 548 595.105 548 594C548 592.895 547.105 592 546 592C544.895 592 544 592.895 544 594C544 595.105 544.895 596 546 596Z" fill="#05FFFF"/>
<path d="M571 688C572.105 688 573 687.105 573 686C573 684.895 572.105 684 571 684C569.895 684 569 684.895 569 686C569 687.105 569.895 688 571 688Z" fill="#05FFFF"/>
<path d="M571 665C572.105 665 573 664.105 573 663C573 661.895 572.105 661 571 661C569.895 661 569 661.895 569 663C569 664.105 569.895 665 571 665Z" fill="#05FFFF"/>
<path d="M571 642C572.105 642 573 641.105 573 640C573 638.895 572.105 638 571 638C569.895 638 569 638.895 569 640C569 641.105 569.895 642 571 642Z" fill="#05FFFF"/>
<path d="M571 619C572.105 619 573 618.105 573 617C573 615.895 572.105 615 571 615C569.895 615 569 615.895 569 617C569 618.105 569.895 619 571 619Z" fill="#05FFFF"/>
<path d="M571 596C572.105 596 573 595.105 573 594C573 592.895 572.105 592 571 592C569.895 592 569 592.895 569 594C569 595.105 569.895 596 571 596Z" fill="#05FFFF"/>
</g>
</g>
<defs>
<clipPath id="clip0_3_601">
<rect width="1200" height="800" fill="white"/>
</clipPath>
</defs>
</svg>
